P3
10 10
255
255 255 255 255 255 255 0 0 0 0 0 0 0 0 0 0 0 0 0 0 0 255 255 255 255 255 255 255 255 255 
255 255 255 0 0 0 255 0 0 255 0 0 255 0 0 255 0 0 0 0 0 0 0 0 255 255 255 255 255 255 
0 0 0 0 0 0 0 0 0 0 0 0 0 0 0 255 0 0 255 0 0 0 0 0 0 0 0 0 0 0 
0 0 0 7 191 250 255 255 255 255 255 255 0 0 0 255 0 0 255 0 0 0 0 0 255 0 0 0 0 0 
0 0 0 7 191 250 7 191 250 7 191 250 0 0 0 255 0 0 255 0 0 0 0 0 255 0 0 0 0 0 
0 0 0 0 0 0 0 0 0 0 0 0 0 0 0 255 0 0 255 0 0 0 0 0 255 0 0 0 0 0 
255 255 255 0 0 0 255 0 0 255 0 0 255 0 0 255 0 0 255 0 0 0 0 0 0 0 0 0 0 0 
255 255 255 0 0 0 255 0 0 0 0 0 0 0 0 255 0 0 255 0 0 0 0 0 255 255 255 255 255 255 
255 255 255 0 0 0 255 0 0 255 0 0 0 0 0 255 0 0 255 0 0 0 0 0 255 255 255 255 255 255 
255 255 255 0 0 0 0 0 0 0 0 0 0 0 0 0 0 0 0 0 0 0 0 0 255 255 255 255 255 255 
