P3
3 2
255
255 100 100 0 0 0 100 222 155 
0 0 0 55 155 0 0 0 0 
